<svg width="16" height="12" viewBox="0 0 16 12" fill="none" xmlns="http://www.w3.org/2000/svg">
<path d="M1.84667 11.8337C1.46278 11.8337 1.1425 11.7053 0.885833 11.4487C0.629167 11.192 0.500556 10.8714 0.5 10.487V1.51366C0.5 1.12977 0.628611 0.809492 0.885833 0.552825C1.14306 0.296159 1.46306 0.167548 1.84583 0.166992H14.1542C14.5375 0.166992 14.8575 0.295603 15.1142 0.552825C15.3708 0.810048 15.4994 1.13033 15.5 1.51366V10.4878C15.5 10.8712 15.3714 11.1914 15.1142 11.4487C14.8569 11.7059 14.5369 11.8342 14.1542 11.8337H1.84667ZM8 6.09699L14.6667 1.73783L14.41 1.00033L8 5.16699L1.59 1.00033L1.33333 1.73783L8 6.09699Z" fill="white" fill-opacity="0.7"/>
</svg>
