<svg width="14" height="14" viewBox="0 0 14 14" fill="none" xmlns="http://www.w3.org/2000/svg">
<path d="M6.99935 0.125C6.17055 0.125 5.37569 0.45424 4.78964 1.04029C4.20359 1.62634 3.87435 2.4212 3.87435 3.25C3.87435 4.0788 4.20359 4.87366 4.78964 5.45971C5.37569 6.04576 6.17055 6.375 6.99935 6.375C7.82815 6.375 8.62301 6.04576 9.20906 5.45971C9.79511 4.87366 10.1243 4.0788 10.1243 3.25C10.1243 2.4212 9.79511 1.62634 9.20906 1.04029C8.62301 0.45424 7.82815 0.125 6.99935 0.125ZM3.66602 8.04167C2.83721 8.04167 2.04236 8.37091 1.45631 8.95696C0.870256 9.54301 0.541016 10.3379 0.541016 11.1667V12.1567C0.541016 12.785 0.996016 13.32 1.61602 13.4208C5.18102 14.0033 8.81768 14.0033 12.3827 13.4208C12.6825 13.3715 12.9551 13.2174 13.152 12.9859C13.3489 12.7544 13.4572 12.4605 13.4577 12.1567V11.1667C13.4577 10.3379 13.1284 9.54301 12.5424 8.95696C11.9563 8.37091 11.1615 8.04167 10.3327 8.04167H10.0493C9.89379 8.04222 9.74268 8.06611 9.59602 8.11333L8.87435 8.34917C7.65599 8.74692 6.34271 8.74692 5.12435 8.34917L4.40268 8.11333C4.25641 8.06642 4.1038 8.04224 3.95018 8.04167H3.66602Z" fill="white" fill-opacity="0.7"/>
</svg>
