<svg width="12" height="18" viewBox="0 0 12 18" fill="none" xmlns="http://www.w3.org/2000/svg">
<path d="M5.99935 8.58366C5.44681 8.58366 4.91691 8.36417 4.52621 7.97346C4.13551 7.58276 3.91602 7.05286 3.91602 6.50033C3.91602 5.94779 4.13551 5.41789 4.52621 5.02719C4.91691 4.63649 5.44681 4.41699 5.99935 4.41699C6.55188 4.41699 7.08179 4.63649 7.47249 5.02719C7.86319 5.41789 8.08268 5.94779 8.08268 6.50033C8.08268 6.77391 8.0288 7.04482 7.9241 7.29758C7.8194 7.55034 7.66594 7.78001 7.47249 7.97346C7.27903 8.16692 7.04937 8.32038 6.79661 8.42508C6.54384 8.52977 6.27294 8.58366 5.99935 8.58366ZM5.99935 0.666992C4.45225 0.666992 2.96852 1.28157 1.87456 2.37554C0.780597 3.4695 0.166016 4.95323 0.166016 6.50033C0.166016 10.8753 5.99935 17.3337 5.99935 17.3337C5.99935 17.3337 11.8327 10.8753 11.8327 6.50033C11.8327 4.95323 11.2181 3.4695 10.1241 2.37554C9.03018 1.28157 7.54644 0.666992 5.99935 0.666992Z" fill="white" fill-opacity="0.7"/>
</svg>
