<svg width="24" height="24" viewBox="0 0 24 24" fill="none" xmlns="http://www.w3.org/2000/svg">
<path fill-rule="evenodd" clip-rule="evenodd" d="M10 2C9.20435 2 8.44129 2.31607 7.87868 2.87868C7.31607 3.44129 7 4.20435 7 5V19C7 19.7956 7.31607 20.5587 7.87868 21.1213C8.44129 21.6839 9.20435 22 10 22H16C16.7956 22 17.5587 21.6839 18.1213 21.1213C18.6839 20.5587 19 19.7956 19 19V5C19 4.20435 18.6839 3.44129 18.1213 2.87868C17.5587 2.31607 16.7956 2 16 2H10ZM11.293 8.293C11.4805 8.10553 11.7348 8.00021 12 8.00021C12.2652 8.00021 12.5195 8.10553 12.707 8.293L15.707 11.293C15.8945 11.4805 15.9998 11.7348 15.9998 12C15.9998 12.2652 15.8945 12.5195 15.707 12.707L12.707 15.707C12.5184 15.8892 12.2658 15.99 12.0036 15.9877C11.7414 15.9854 11.4906 15.8802 11.3052 15.6948C11.1198 15.5094 11.0146 15.2586 11.0123 14.9964C11.01 14.7342 11.1108 14.4816 11.293 14.293L12.586 13H4C3.73478 13 3.48043 12.8946 3.29289 12.7071C3.10536 12.5196 3 12.2652 3 12C3 11.7348 3.10536 11.4804 3.29289 11.2929C3.48043 11.1054 3.73478 11 4 11H12.586L11.293 9.707C11.1055 9.51947 11.0002 9.26516 11.0002 9C11.0002 8.73484 11.1055 8.48053 11.293 8.293Z" fill="white"/>
</svg>
