<svg width="18" height="18" viewBox="0 0 18 18" fill="none" xmlns="http://www.w3.org/2000/svg">
<path fill-rule="evenodd" clip-rule="evenodd" d="M10.3893 4.82831C10.1165 5.01747 9.80874 5.15039 9.484 5.21933C9.15925 5.28826 8.82403 5.29183 8.4979 5.22981C8.17176 5.1678 7.86124 5.04146 7.58446 4.85815C7.30767 4.67484 7.07017 4.43824 6.88581 4.16215C6.70145 3.88607 6.57393 3.57603 6.51067 3.25013C6.44742 2.92423 6.44971 2.589 6.51741 2.264C6.58511 1.93899 6.71687 1.63073 6.90498 1.35719C7.0931 1.08365 7.33381 0.850322 7.61308 0.670813C8.16443 0.306636 8.83754 0.17555 9.48526 0.306207C10.133 0.436864 10.7026 0.818639 11.0697 1.36808C11.4368 1.91751 11.5714 2.58993 11.4441 3.23833C11.3169 3.88673 10.9381 4.45837 10.3906 4.82831H10.3893ZM9.69557 1.71081C9.55945 1.61288 9.405 1.54334 9.24144 1.50634C9.07788 1.46933 8.90854 1.46562 8.74352 1.49541C8.57849 1.5252 8.42115 1.5879 8.28085 1.67976C8.14055 1.77163 8.02018 1.89078 7.92689 2.03013C7.83359 2.16948 7.7693 2.32618 7.73782 2.49089C7.70634 2.6556 7.70833 2.82497 7.74366 2.9889C7.779 3.15283 7.84695 3.30797 7.94349 3.4451C8.04002 3.58222 8.16316 3.69852 8.30557 3.78706C8.58072 3.9542 8.90974 4.00874 9.22409 3.93933C9.53845 3.86991 9.8139 3.68188 9.99307 3.41442C10.1722 3.14695 10.2413 2.82067 10.1859 2.50355C10.1305 2.18642 9.95484 1.90291 9.69557 1.71206V1.71081ZM12.9581 1.74831C13.3186 1.50581 13.7524 1.39661 14.1847 1.4395C14.6171 1.4824 15.021 1.67471 15.3268 1.98331C15.5448 2.203 15.7055 2.4728 15.7948 2.76906C15.8842 3.06533 15.8995 3.37899 15.8394 3.68255C15.7793 3.9861 15.6457 4.27027 15.4502 4.51014C15.2546 4.75 15.0033 4.93823 14.7181 5.05831C14.3756 5.20187 13.998 5.23977 13.6339 5.16716C13.2697 5.09455 12.9355 4.91474 12.6743 4.65081C12.4779 4.45333 12.3275 4.21487 12.2339 3.95248C12.1404 3.69009 12.106 3.41027 12.1332 3.13304C12.1605 2.85581 12.2486 2.58802 12.3915 2.34885C12.5343 2.10968 12.7282 1.90504 12.9593 1.74956L12.9581 1.74831ZM13.5581 3.76081C13.6754 3.87767 13.8344 3.94313 14 3.94278C14.082 3.9426 14.1632 3.92628 14.2389 3.89473C14.3146 3.86319 14.3833 3.81705 14.4412 3.75894C14.4991 3.70083 14.5449 3.63189 14.5761 3.55606C14.6074 3.48023 14.6233 3.39899 14.6232 3.31699C14.623 3.23498 14.6067 3.15381 14.5751 3.07812C14.5436 3.00242 14.4974 2.93368 14.4393 2.87581C14.3236 2.75775 14.1659 2.69033 14.0006 2.68831C13.9182 2.68831 13.8366 2.7046 13.7605 2.73624C13.6845 2.76789 13.6154 2.81426 13.5573 2.8727C13.4992 2.93113 13.4533 3.00047 13.4221 3.07673C13.3909 3.153 13.3751 3.23467 13.3756 3.31706C13.3751 3.39961 13.391 3.48144 13.4223 3.55782C13.4536 3.6342 13.4998 3.70237 13.5581 3.76081ZM2.98808 14.6083H5.25058V15.8646H2.98808C2.59209 15.8606 2.21375 15.7002 1.93558 15.4183C1.79685 15.2785 1.68704 15.1126 1.6124 14.9303C1.53776 14.748 1.49976 14.5528 1.50058 14.3558V12.0933C1.33232 12.0875 1.16698 12.0477 1.01447 11.9764C0.861966 11.9051 0.725436 11.8037 0.613075 11.6783C0.493415 11.5578 0.399559 11.4142 0.337235 11.2563C0.27491 11.0983 0.245424 10.9293 0.250575 10.7596V8.03206C0.254325 7.44206 0.488075 6.87831 0.900575 6.45956C1.31183 6.04581 1.86808 5.80956 2.45058 5.80581H4.75058C4.44001 6.17505 4.20627 6.60257 4.06308 7.06331H2.45058C2.19693 7.07084 1.95563 7.1745 1.77558 7.35331C1.59919 7.53523 1.50056 7.77867 1.50058 8.03206V10.8221H2.75058V14.3546C2.74753 14.3886 2.7515 14.423 2.76225 14.4554C2.773 14.4879 2.7903 14.5178 2.81308 14.5433C2.86332 14.5821 2.9246 14.604 2.98808 14.6058V14.6083ZM12.1131 6.46081C11.9083 6.25456 11.665 6.09067 11.3969 5.9785C11.1288 5.86633 10.8412 5.80807 10.5506 5.80706H7.45058C6.86799 5.8124 6.31101 6.04732 5.90058 6.46081C5.48808 6.87956 5.25433 7.44331 5.25058 8.03331V12.0058C5.24881 12.3469 5.37865 12.6755 5.61308 12.9233C5.72544 13.0487 5.86197 13.1501 6.01447 13.2214C6.16698 13.2927 6.33232 13.3325 6.50058 13.3383V16.2421C6.49927 16.4403 6.53726 16.6368 6.61235 16.8202C6.68745 17.0037 6.79815 17.1704 6.93808 17.3108C7.16307 17.5208 7.44683 17.6571 7.75058 17.7008H10.2506C10.6022 17.6547 10.9243 17.4802 11.155 17.2109C11.3858 16.9416 11.5088 16.5966 11.5006 16.2421V13.3371C11.6688 13.3312 11.8342 13.2914 11.9867 13.2201C12.1392 13.1488 12.2757 13.0474 12.3881 12.9221C12.5076 12.8017 12.6013 12.6583 12.6637 12.5006C12.726 12.3429 12.7556 12.1741 12.7506 12.0046V8.03206C12.7514 7.44479 12.5227 6.88169 12.1131 6.46081ZM11.5006 12.0671H10.2506V16.2421C10.2496 16.308 10.2227 16.3709 10.1756 16.4171C10.1542 16.4423 10.1273 16.4622 10.0969 16.4753C10.0666 16.4883 10.0336 16.494 10.0006 16.4921H7.98808C7.92275 16.489 7.86092 16.4617 7.81468 16.4155C7.76843 16.3692 7.74112 16.3074 7.73807 16.2421V12.0671H6.50058V8.03206C6.50058 7.77831 6.59932 7.53456 6.77557 7.35331C6.95563 7.1745 7.19693 7.07084 7.45058 7.06331H10.5506C10.7399 7.06697 10.924 7.12565 11.0805 7.2322C11.237 7.33874 11.359 7.48854 11.4318 7.66331C11.4778 7.78079 11.5011 7.90591 11.5006 8.03206V12.0671ZM15.0131 15.8633H12.7506V14.6071H15.0006C15.0641 14.6053 15.1253 14.5834 15.1756 14.5446C15.2007 14.52 15.2204 14.4903 15.2334 14.4576C15.2463 14.4248 15.2522 14.3897 15.2506 14.3546V10.8221H16.5006V8.03206C16.5006 7.77867 16.402 7.53523 16.2256 7.35331C16.0455 7.1745 15.8042 7.07084 15.5506 7.06331H13.9381C13.7949 6.60257 13.5611 6.17505 13.2506 5.80581H15.5506C16.1332 5.81115 16.6901 6.04607 17.1006 6.45956C17.5131 6.87831 17.7468 7.44206 17.7506 8.03206V10.7596C17.7506 11.1008 17.6218 11.4283 17.3893 11.6758C17.1568 11.9246 16.8393 12.0733 16.5006 12.0921V14.3546C16.5006 14.7533 16.3443 15.1346 16.0656 15.4171C15.7874 15.6989 15.4091 15.8593 15.0131 15.8633ZM4.00058 1.43081C3.62846 1.42971 3.26454 1.54009 2.95574 1.74774C2.64695 1.95539 2.40743 2.25077 2.26808 2.59581C2.12735 2.94042 2.09096 3.31877 2.1634 3.68388C2.23585 4.049 2.41394 4.38479 2.67558 4.64956C2.93753 4.91377 3.2723 5.09388 3.63712 5.1669C4.00194 5.23993 4.38025 5.20254 4.72371 5.05952C5.06718 4.9165 5.36022 4.67433 5.56539 4.36396C5.77056 4.05359 5.87855 3.68911 5.87558 3.31706C5.87558 2.81706 5.67808 2.33706 5.32557 1.98331C5.15184 1.8087 4.94539 1.67003 4.71805 1.57523C4.4907 1.48043 4.2469 1.43136 4.00058 1.43081ZM4.00058 3.94581C3.91818 3.94581 3.8366 3.92953 3.76053 3.89788C3.68445 3.86624 3.61539 3.81987 3.5573 3.76143C3.49922 3.703 3.45326 3.63365 3.42207 3.55739C3.39088 3.48113 3.37508 3.39945 3.37558 3.31706C3.3759 3.15106 3.44173 2.99189 3.55877 2.87415C3.6758 2.75641 3.83457 2.68963 4.00058 2.68831C4.16597 2.69154 4.32364 2.75894 4.44026 2.87626C4.55688 2.99359 4.62334 3.15165 4.62558 3.31706C4.62525 3.48307 4.55942 3.64224 4.44238 3.75998C4.32535 3.87771 4.16658 3.9445 4.00058 3.94581Z" fill="white" fill-opacity="0.7"/>
</svg>
