<svg width="20" height="11" viewBox="0 0 20 11" fill="none" xmlns="http://www.w3.org/2000/svg">
<path d="M1.66732 10.833V9.16634H18.334V10.833H1.66732ZM2.62565 5.79134L1.54232 5.16634L2.25065 3.91634H0.833984V2.66634H2.25065L1.54232 1.45801L2.62565 0.833008L3.33398 2.04134L4.04232 0.833008L5.12565 1.45801L4.41732 2.66634H5.83398V3.91634H4.41732L5.12565 5.16634L4.04232 5.79134L3.33398 4.54134L2.62565 5.79134ZM9.29232 5.79134L8.20898 5.16634L8.91732 3.91634H7.50065V2.66634H8.91732L8.20898 1.45801L9.29232 0.833008L10.0007 2.04134L10.709 0.833008L11.7923 1.45801L11.084 2.66634H12.5007V3.91634H11.084L11.7923 5.16634L10.709 5.79134L10.0007 4.54134L9.29232 5.79134ZM15.959 5.79134L14.8757 5.16634L15.584 3.91634H14.1673V2.66634H15.584L14.8757 1.45801L15.959 0.833008L16.6673 2.04134L17.3757 0.833008L18.459 1.45801L17.7507 2.66634H19.1673V3.91634H17.7507L18.459 5.16634L17.3757 5.79134L16.6673 4.54134L15.959 5.79134Z" fill="white" fill-opacity="0.7"/>
</svg>
