<svg width="87" height="48" viewBox="0 0 87 48" fill="none" xmlns="http://www.w3.org/2000/svg">
<path d="M13.1037 3.96741L12.8441 4.58696C12.8231 4.63618 12.8264 4.6922 12.8506 4.73973L13.1569 5.33551C13.231 5.48149 13.0892 5.64274 12.9457 5.57654L12.3572 5.30326C12.3105 5.28119 12.2573 5.28459 12.2121 5.31005L11.6462 5.63255C11.5076 5.71063 11.3544 5.56126 11.4173 5.4102L11.6769 4.79065C11.6978 4.74142 11.6946 4.68541 11.6704 4.63788L11.3641 4.0421C11.2899 3.89612 11.4318 3.73487 11.5753 3.80107L12.1638 4.07435C12.2105 4.09641 12.2637 4.09302 12.3089 4.06756L12.8747 3.74505C13.0134 3.66697 13.1666 3.81634 13.1037 3.96741Z" fill="#F8931F"/>
<path d="M36.7311 4.12738L36.7117 4.68413C36.7117 4.72826 36.7279 4.77069 36.7601 4.79955L37.1664 5.156C37.2647 5.24257 37.2035 5.41231 37.0745 5.40722L36.5457 5.38685C36.5038 5.38685 36.4634 5.40382 36.436 5.43777L36.0975 5.86551C36.0153 5.96905 35.854 5.90455 35.8589 5.76876L35.8782 5.21202C35.8782 5.16788 35.8621 5.12545 35.8299 5.09659L35.4236 4.74014C35.3252 4.65357 35.3865 4.48383 35.5155 4.48893L36.0443 4.5093C36.0862 4.5093 36.1265 4.49232 36.1539 4.45837L36.4925 4.03063C36.5747 3.92709 36.7359 3.99159 36.7311 4.12738Z" fill="#F8931F"/>
<path d="M30.7251 42.2362L31.0524 42.6741C31.0782 42.708 31.1185 42.7284 31.1604 42.7284L31.6892 42.7233C31.8182 42.7233 31.8762 42.8931 31.7746 42.9779L31.3587 43.3225C31.3264 43.3497 31.3071 43.3921 31.3071 43.4362L31.3119 43.993C31.3119 44.1288 31.1507 44.1899 31.0701 44.0829L30.7428 43.645C30.717 43.6111 30.6767 43.5907 30.6348 43.5907L30.106 43.5958C29.977 43.5958 29.919 43.426 30.0205 43.3412L30.4365 42.9966C30.4687 42.9694 30.4881 42.927 30.4881 42.8829L30.4833 42.3261C30.4833 42.1903 30.6445 42.1292 30.7251 42.2362Z" fill="#F8931F"/>
<path d="M43.1379 20.6719L43.3765 21.1693C43.3959 21.2083 43.4297 21.2372 43.4717 21.2456L43.9908 21.3526C44.1182 21.378 44.1407 21.5597 44.0263 21.6208L43.5539 21.872C43.5168 21.8923 43.4894 21.928 43.4813 21.9721L43.3798 22.5187C43.3556 22.6528 43.1847 22.6765 43.1266 22.556L42.888 22.0587C42.8687 22.0197 42.8348 21.9908 42.7929 21.9823L42.2738 21.8754C42.1464 21.8499 42.1238 21.6683 42.2383 21.6072L42.7107 21.356C42.7478 21.3356 42.7752 21.3 42.7832 21.2558L42.8848 20.7093C42.909 20.5752 43.0799 20.5514 43.1395 20.6719H43.1379Z" fill="#F8931F"/>
<path d="M2.92993 26.2001L2.57685 26.6143C2.54944 26.6465 2.53655 26.6923 2.54461 26.7348L2.63973 27.283C2.6623 27.4171 2.51236 27.5054 2.41563 27.4154L2.02225 27.0437C1.99162 27.0148 1.94809 27.0013 1.90778 27.0098L1.38704 27.1099C1.25967 27.1337 1.17584 26.9758 1.26128 26.874L1.61436 26.4598C1.64177 26.4275 1.65467 26.3817 1.6466 26.3393L1.55148 25.791C1.52891 25.6569 1.67885 25.5687 1.77558 25.6586L2.16896 26.0304C2.19959 26.0592 2.24312 26.0728 2.28343 26.0643L2.80417 25.9642C2.93154 25.9404 3.01537 26.0983 2.92993 26.2001Z" fill="#F8931F"/>
<path d="M38.162 6.60288L38.1346 7.39726C38.133 7.46006 38.1588 7.52117 38.2039 7.56021L38.7827 8.06942C38.9246 8.19333 38.8359 8.43606 38.6521 8.42927L37.8976 8.40042C37.8379 8.39872 37.7799 8.42588 37.7428 8.4734L37.2591 9.08277C37.1414 9.23214 36.9109 9.13878 36.9173 8.94528L36.9448 8.1509C36.9464 8.08809 36.9206 8.02699 36.8754 7.98795L36.2966 7.47873C36.1548 7.35482 36.2434 7.11209 36.4272 7.11888L37.1818 7.14774C37.2414 7.14944 37.2994 7.12228 37.3365 7.07475L37.8202 6.46539C37.9379 6.31602 38.1684 6.40937 38.162 6.60288Z" fill="#F8931F"/>
<path d="M29.2583 44.0117L29.7259 44.6347C29.7629 44.6839 29.8194 44.7128 29.879 44.7128L30.6335 44.706C30.8173 44.7043 30.8995 44.9487 30.7544 45.0692L30.1628 45.5614C30.116 45.6005 30.0886 45.6599 30.0886 45.7227L30.095 46.5171C30.0967 46.7106 29.8645 46.7971 29.75 46.6444L29.2825 46.0214C29.2454 45.9722 29.189 45.9434 29.1293 45.9434L28.3748 45.9502C28.191 45.9518 28.1088 45.7074 28.2539 45.5869L28.8456 45.0947C28.8923 45.0556 28.9197 44.9962 28.9197 44.9334L28.9133 44.139C28.9117 43.9455 29.1438 43.859 29.2583 44.0117Z" fill="#F8931F"/>
<path d="M2.42933 28.6388L1.92471 29.2295C1.8844 29.2771 1.86828 29.3399 1.87795 29.401L2.01338 30.1818C2.04562 30.3719 1.8312 30.4992 1.69416 30.3702L1.13311 29.8389C1.08797 29.7965 1.02831 29.7795 0.970275 29.7897L0.228657 29.9323C0.0480895 29.9662 -0.0728265 29.7404 0.0497017 29.5962L0.554324 29.0055C0.59463 28.9579 0.610752 28.8951 0.601079 28.834L0.465653 28.0532C0.433408 27.8631 0.647833 27.7358 0.784871 27.8648L1.34592 28.3961C1.39106 28.4385 1.45071 28.4555 1.50875 28.4453L2.25037 28.3028C2.43094 28.2688 2.55186 28.4946 2.42933 28.6388Z" fill="#F8931F"/>
<path d="M20.5232 23.8917C20.4378 22.9649 21.0811 22.14 21.9613 22.05C22.8416 21.96 23.6251 22.6373 23.7106 23.5641C23.796 24.4909 23.1528 25.3158 22.2725 25.4058C21.3922 25.4957 20.6087 24.8185 20.5232 23.8917Z" fill="#4A2559"/>
<path d="M31.2193 12.0285C33.5185 11.3353 34.8486 8.81096 34.1902 6.39029C33.5318 3.96961 31.1341 2.56922 28.8349 3.26242C26.5357 3.95563 25.2056 6.47992 25.864 8.9006C26.5225 11.3213 28.9201 12.7217 31.2193 12.0285Z" fill="#249EFF"/>
<path d="M40.6291 12.8419C40.3276 12.8164 39.9069 12.8266 39.9069 12.8266C39.9069 12.8266 40.7146 12.5278 41.0483 12.3343C41.3804 12.1408 41.166 11.837 40.871 11.8896C40.5791 11.9405 39.7859 12.1527 39.7859 12.1527C39.7859 12.1527 40.7823 11.4958 41.0435 11.2446C41.3046 10.9934 41.0999 10.5606 40.6807 10.7846C40.268 11.0053 39.3119 11.5145 39.3119 11.5145C39.3119 11.5145 40.0342 10.9272 40.3776 10.53C40.721 10.1328 40.3196 9.83577 40.0181 10.0429C39.7166 10.2482 38.6848 11.1428 38.6848 11.1428C39.104 10.5368 38.8525 10.1379 38.6235 10.2245C38.3946 10.311 38.0383 11.3957 37.5095 11.652C35.9698 11.9677 34.4302 12.2834 32.8905 12.5991C32.0231 12.7774 31.1799 13.1202 30.2965 13.1966C29.0244 13.3052 27.6637 12.9963 26.7028 12.0712C25.8516 11.2514 25.4002 10.1006 25.0374 8.9735C24.6247 7.69027 24.162 6.42232 23.7186 5.14758C23.5413 4.64006 23.3656 4.13423 23.1882 3.62671C23.1044 3.01905 23.7718 2.11434 23.7154 1.86482C23.659 1.61531 23.2043 1.61191 22.9512 2.31293C22.9512 2.31293 23.0979 0.914283 23.0979 0.535765C23.0979 0.157246 22.6417 -0.0345589 22.5127 0.484843C22.3837 1.00424 22.3112 1.96327 22.3112 1.96327C22.3112 1.96327 22.1935 0.842993 22.1435 0.357539C22.0935 -0.134705 21.6373 -0.0803885 21.5792 0.287946C21.5212 0.65628 21.5438 1.89198 21.5438 1.89198C21.5438 1.89198 21.2777 1.07723 21.1584 0.792071C21.0391 0.503514 20.6812 0.479751 20.7086 0.87694C20.736 1.27752 20.9392 2.15338 20.9392 2.15338C20.9392 2.15338 20.7167 1.77826 20.5313 1.52534C20.3346 1.25546 20.1202 1.37597 20.183 1.66283C20.2459 1.95139 20.5909 3.22783 20.7505 4.27682L21.95 17.9544C22.2354 20.5141 24.8939 21.9535 27.0366 20.7059L38.2527 14.1811C38.2753 14.1743 38.2979 14.1658 38.3221 14.1556C39.2426 13.7228 40.4469 13.329 40.7113 13.2272C40.9741 13.1253 40.9532 12.8707 40.6307 12.8452L40.6291 12.8419Z" fill="#249EFF"/>
<path d="M41.5646 30.6811C43.4626 29.297 43.9354 26.555 42.6207 24.5568C41.306 22.5586 38.7017 22.0608 36.8037 23.4449C34.9058 24.8291 34.433 27.571 35.7476 29.5693C37.0623 31.5675 39.6667 32.0653 41.5646 30.6811Z" fill="#F8C91F"/>
<path d="M37.5505 38.8296C37.4892 38.5292 37.3651 38.1218 37.3651 38.1218C37.3651 38.1218 37.8503 38.8262 38.1147 39.0961C38.3775 39.366 38.5839 39.0723 38.4549 38.7991C38.3292 38.5292 37.9245 37.8146 37.9245 37.8146C37.9245 37.8146 38.7758 38.6022 39.0708 38.7872C39.3658 38.9722 39.6867 38.6531 39.3739 38.3068C39.0659 37.9657 38.355 37.1764 38.355 37.1764C38.355 37.1764 39.0708 37.7178 39.5158 37.9419C39.9607 38.1659 40.1091 37.6924 39.8446 37.4564C39.5802 37.2205 38.5081 36.4618 38.5081 36.4618C39.1562 36.7011 39.4368 36.3463 39.2981 36.1477C39.1595 35.9475 38.1083 35.9033 37.7359 35.4586C37.0329 34.0464 36.3284 32.6341 35.6255 31.2236C35.2289 30.4275 34.6936 29.7027 34.3825 28.8625C33.9343 27.654 33.8295 26.2435 34.376 25.0502C34.8597 23.9944 35.748 23.2357 36.6363 22.572C37.6504 21.815 38.6371 21.0138 39.6318 20.2296C40.0284 19.9173 40.425 19.605 40.8216 19.2926C41.3311 19.0414 42.3129 19.4437 42.5161 19.3181C42.7192 19.1942 42.5967 18.7495 41.9115 18.6969C41.9115 18.6969 43.1819 18.4524 43.514 18.3472C43.8462 18.242 43.8897 17.7463 43.3964 17.7633C42.9046 17.782 42.0421 17.9755 42.0421 17.9755C42.0421 17.9755 42.9933 17.5511 43.406 17.3678C43.8252 17.1828 43.6511 16.7533 43.3109 16.7992C42.9707 16.845 41.8905 17.2082 41.8905 17.2082C41.8905 17.2082 42.5338 16.7228 42.7515 16.5293C42.9723 16.3324 42.895 15.9776 42.5516 16.1134C42.2082 16.2509 41.4939 16.6922 41.4939 16.6922C41.4939 16.6922 41.7632 16.3714 41.9341 16.1219C42.1163 15.8554 41.9518 15.6806 41.7164 15.8215C41.481 15.9624 40.4541 16.6515 39.577 17.0962L27.8917 22.0509C25.7217 23.0371 25.1929 26.0245 26.8825 27.766L35.7206 36.8827C35.7335 36.9031 35.7464 36.9235 35.7625 36.9438C36.3977 37.7212 37.0765 38.7855 37.2393 39.0129C37.4021 39.2421 37.6182 39.1504 37.5537 38.8296H37.5505Z" fill="#F8C91F"/>
<path d="M27.6321 43.9874C29.025 42.0748 28.6816 39.3354 26.8649 37.8688C25.0483 36.4023 22.4464 36.7639 21.0534 38.6765C19.6605 40.5892 20.0039 43.3285 21.8206 44.7951C23.6372 46.2616 26.2391 45.9 27.6321 43.9874Z" fill="#F8931F"/>
<path d="M13.2865 43.1847C13.5396 43.0336 13.8685 42.7892 13.8685 42.7892C13.8685 42.7892 13.38 43.4817 13.2139 43.8246C13.0495 44.1658 13.3735 44.2846 13.5815 44.0758C13.7863 43.8705 14.3086 43.256 14.3086 43.256C14.3086 43.256 13.8524 44.3372 13.7734 44.6852C13.6944 45.0332 14.0765 45.2589 14.2957 44.8448C14.5101 44.4374 15.0099 43.4953 15.0099 43.4953C15.0099 43.4953 14.7358 44.3695 14.6649 44.8787C14.5956 45.3879 15.0647 45.3964 15.1986 45.062C15.3324 44.7293 15.6967 43.4376 15.6967 43.4376C15.6725 44.1539 16.0756 44.3287 16.2126 44.1318C16.3513 43.9333 16.0804 42.8741 16.369 42.3717C17.4299 41.2531 18.4907 40.1345 19.5515 39.0159C20.1497 38.3845 20.643 37.6376 21.3056 37.0792C22.26 36.2746 23.4966 35.7535 24.73 35.9453C25.8214 36.1151 26.7662 36.7737 27.6255 37.4628C28.6057 38.2487 29.6182 38.9938 30.6178 39.7543C31.016 40.0564 31.4142 40.3585 31.8108 40.6624C32.1864 41.0969 32.1171 42.1917 32.288 42.3581C32.4605 42.5244 32.8217 42.2698 32.6669 41.5722C32.6669 41.5722 33.2618 42.7654 33.4553 43.0659C33.6487 43.3663 34.1066 43.2611 33.9454 42.7773C33.7841 42.2919 33.3537 41.4907 33.3537 41.4907C33.3537 41.4907 34.0179 42.3139 34.3033 42.6704C34.5935 43.0319 34.9272 42.7315 34.7853 42.4073C34.6435 42.0831 33.997 41.1139 33.997 41.1139C33.997 41.1139 34.6225 41.6112 34.8611 41.7708C35.1029 41.932 35.3996 41.7504 35.1755 41.4483C34.9498 41.1461 34.3436 40.5673 34.3436 40.5673C34.3436 40.5673 34.7112 40.7405 34.9869 40.8355C35.2803 40.9374 35.3883 40.7235 35.1932 40.53C34.9965 40.3365 34.0743 39.5183 33.4133 38.7766L25.5038 28.6024C23.9754 26.7319 21.1347 27.09 20.069 29.2882L14.4908 40.7897C14.4763 40.8084 14.4618 40.827 14.4489 40.8491C13.9378 41.7114 13.1833 42.7026 13.0253 42.9318C12.8689 43.1609 13.014 43.3493 13.2832 43.1898L13.2865 43.1847Z" fill="#F8931F"/>
<path d="M10.9682 29.4191C9.82995 27.3279 7.29716 26.6048 5.31092 27.8032C3.32467 29.0015 2.63787 31.6681 3.77609 33.7593C4.91431 35.8505 7.4471 36.5736 9.43335 35.3752C11.4196 34.1769 12.1064 31.5103 10.9682 29.4191Z" fill="#F94E54"/>
<path d="M1.64648 21.4583C1.87219 21.6501 2.21075 21.8809 2.21075 21.8809C2.21075 21.8809 1.41916 21.6586 1.0548 21.6229C0.693662 21.5873 0.708172 21.9488 0.967738 22.0744C1.22408 22.1983 1.96086 22.4835 1.96086 22.4835C1.96086 22.4835 0.837149 22.4377 0.501809 22.4886C0.166468 22.5395 0.106816 22.9978 0.553399 23.0589C0.993534 23.1183 2.00923 23.2592 2.00923 23.2592C2.00923 23.2592 1.13702 23.3135 0.661418 23.434C0.185815 23.5546 0.353485 24.0162 0.696886 24.0247C1.04029 24.0332 2.31555 23.911 2.31555 23.911C1.67389 24.152 1.66905 24.6103 1.89476 24.6731C2.12047 24.7359 2.9556 24.0791 3.50697 24.1758C4.88703 24.7987 6.26547 25.4234 7.64552 26.0463C8.42261 26.3977 9.2658 26.6031 10.0042 27.0461C11.0666 27.6826 11.9856 28.6977 12.271 29.9758C12.5241 31.1063 12.2919 32.2741 12.0033 33.3706C11.6728 34.6199 11.3891 35.8861 11.0876 37.1439C10.9683 37.6446 10.8474 38.1453 10.7281 38.6478C10.4846 39.1757 9.49151 39.5134 9.40929 39.7426C9.32706 39.9717 9.68497 40.2331 10.2428 39.8224C10.2428 39.8224 9.4109 40.8459 9.21743 41.1446C9.02397 41.4434 9.28514 41.8541 9.65434 41.5164C10.0219 41.1786 10.5701 40.4606 10.5701 40.4606C10.5701 40.4606 10.0896 41.4145 9.88166 41.8253C9.67046 42.2428 10.0574 42.4584 10.2928 42.2004C10.5282 41.9424 11.1424 40.9511 11.1424 40.9511C11.1424 40.9511 10.9361 41.7472 10.8828 42.0392C10.8296 42.3345 11.1005 42.5586 11.2827 42.2276C11.4665 41.8949 11.7534 41.0869 11.7534 41.0869C11.7534 41.0869 11.7373 41.5113 11.7534 41.8151C11.7712 42.1393 12.0017 42.1665 12.1001 41.9034C12.1984 41.6403 12.5789 40.4334 12.99 39.5134L19.0423 28.0136C20.1273 25.8274 18.7601 23.1794 16.4272 22.9503L4.21474 21.7485C4.19378 21.7417 4.17121 21.7333 4.14702 21.7299C3.19743 21.5499 2.04308 21.1782 1.78191 21.1086C1.52073 21.0407 1.40948 21.2529 1.6497 21.4566L1.64648 21.4583Z" fill="#F94E54"/>
<path d="M11.3682 15.8571C13.4976 15.1334 14.6666 12.7293 13.9792 10.4875C13.2918 8.24557 11.0084 7.01481 8.87903 7.73849C6.74965 8.46217 5.58065 10.8662 6.26802 13.1081C6.95538 15.35 9.23881 16.5808 11.3682 15.8571Z" fill="#3EB489"/>
<path d="M17.3206 3.11417C17.2206 3.39424 17.1191 3.79312 17.1191 3.79312C17.1191 3.79312 17.0739 2.95122 16.9949 2.58458C16.9159 2.21964 16.6016 2.34525 16.5693 2.6372C16.5371 2.92576 16.5113 3.73202 16.5113 3.73202C16.5113 3.73202 16.2098 2.62022 16.0631 2.30621C15.9164 1.99389 15.494 2.07536 15.5762 2.53026C15.6568 2.97837 15.8422 4.01548 15.8422 4.01548C15.8422 4.01548 15.5294 3.17867 15.2779 2.75092C15.028 2.32318 14.6701 2.62532 14.7685 2.9648C14.8668 3.30427 15.3618 4.51282 15.3618 4.51282C14.9539 3.95947 14.5476 4.09356 14.5621 4.33289C14.5766 4.57223 15.4101 5.19008 15.4907 5.75701C15.3602 7.29654 15.2296 8.83438 15.099 10.3739C15.0248 11.2413 15.099 12.1273 14.9345 12.9845C14.6975 14.2168 14.0801 15.4237 13.0402 16.0924C12.1196 16.6848 11.0185 16.8121 9.96407 16.863C8.76136 16.9208 7.55865 17.0277 6.35594 17.116C5.87711 17.1516 5.39829 17.1872 4.91946 17.2212C4.37937 17.1431 3.77962 16.2757 3.5523 16.2639C3.32498 16.252 3.20406 16.6814 3.73609 17.1041C3.73609 17.1041 2.58014 16.6016 2.25608 16.5032C1.93364 16.4047 1.64989 16.7867 2.06101 17.043C2.47051 17.301 3.27017 17.6184 3.27017 17.6184C3.27017 17.6184 2.28349 17.4385 1.85625 17.3604C1.42257 17.2806 1.35163 17.7253 1.64989 17.8764C1.94976 18.0275 3.0106 18.3279 3.0106 18.3279C3.0106 18.3279 2.2448 18.3686 1.97072 18.406C1.69342 18.4433 1.57895 18.776 1.92719 18.8541C2.27543 18.9322 3.0767 18.9661 3.0767 18.9661C3.0767 18.9661 2.69783 19.0798 2.43343 19.1885C2.1529 19.3056 2.19804 19.5381 2.46083 19.5534C2.72363 19.5687 3.90215 19.5738 4.83885 19.696L16.8273 22.1148C19.086 22.5103 21.0061 20.3682 20.4983 18.0173L17.843 5.70778C17.843 5.68402 17.843 5.66025 17.8397 5.63479C17.7091 4.65031 17.6866 3.40951 17.6688 3.13284C17.6495 2.85616 17.4286 2.81203 17.3222 3.10907L17.3206 3.11417Z" fill="#3EB489"/>
<path d="M75.362 23.5846C75.6686 23.5846 75.8886 23.6513 76.022 23.7846C76.1686 23.9179 76.242 24.0913 76.242 24.3046C76.242 24.6513 76.1353 24.9579 75.922 25.2246C75.722 25.4913 75.402 25.6313 74.962 25.6446C73.9086 25.6579 72.962 25.5779 72.122 25.4046C71.1886 27.3913 70.062 29.0446 68.742 30.3646C67.4353 31.6713 66.142 32.3246 64.862 32.3246C63.6886 32.3246 62.8086 31.7046 62.222 30.4646C61.6353 29.2113 61.302 27.5379 61.222 25.4446C60.422 27.7646 59.5153 29.4913 58.502 30.6246C57.502 31.7579 56.4353 32.3246 55.302 32.3246C54.022 32.3246 53.0553 31.5313 52.402 29.9446C51.7486 28.3446 51.422 26.1979 51.422 23.5046C51.422 21.5446 51.5953 19.3913 51.942 17.0446C52.0353 16.3779 52.202 15.9179 52.442 15.6646C52.6953 15.3979 53.0886 15.2646 53.622 15.2646C54.022 15.2646 54.3286 15.3513 54.542 15.5246C54.7686 15.6979 54.882 16.0179 54.882 16.4846C54.882 16.5779 54.8686 16.7579 54.842 17.0246C54.442 19.7579 54.242 22.0846 54.242 24.0046C54.242 25.7913 54.3953 27.1713 54.702 28.1446C55.0086 29.1179 55.422 29.6046 55.942 29.6046C56.4086 29.6046 56.9686 29.1179 57.622 28.1446C58.2886 27.1579 58.9486 25.7046 59.602 23.7846C60.2553 21.8513 60.8086 19.5513 61.262 16.8846C61.3686 16.2713 61.562 15.8513 61.842 15.6246C62.1353 15.3846 62.5286 15.2646 63.022 15.2646C63.4353 15.2646 63.7353 15.3579 63.922 15.5446C64.122 15.7179 64.222 15.9846 64.222 16.3446C64.222 16.5579 64.2086 16.7246 64.182 16.8446C63.8086 19.0179 63.622 21.1913 63.622 23.3646C63.622 24.8446 63.6686 26.0246 63.762 26.9046C63.8686 27.7846 64.062 28.4579 64.342 28.9246C64.6353 29.3779 65.0553 29.6046 65.602 29.6046C66.242 29.6046 66.9553 29.1246 67.742 28.1646C68.5286 27.1913 69.2486 25.9846 69.902 24.5446C69.0886 24.0379 68.4753 23.3846 68.062 22.5846C67.6486 21.7713 67.442 20.8379 67.442 19.7846C67.442 18.7313 67.602 17.8446 67.922 17.1246C68.2553 16.3913 68.702 15.8446 69.262 15.4846C69.8353 15.1246 70.4686 14.9446 71.162 14.9446C72.0153 14.9446 72.6886 15.2513 73.182 15.8646C73.6886 16.4779 73.942 17.3179 73.942 18.3846C73.942 19.8913 73.6153 21.5646 72.962 23.4046C73.642 23.5246 74.442 23.5846 75.362 23.5846ZM69.462 19.6446C69.462 20.9513 69.882 21.9179 70.722 22.5446C71.242 21.0513 71.502 19.8179 71.502 18.8446C71.502 18.2846 71.4286 17.8779 71.282 17.6246C71.1353 17.3579 70.9353 17.2246 70.682 17.2246C70.322 17.2246 70.0286 17.4379 69.802 17.8646C69.5753 18.2779 69.462 18.8713 69.462 19.6446ZM76.9179 21.5846C76.3579 21.5846 75.9379 21.4579 75.6579 21.2046C75.3779 20.9379 75.2379 20.5713 75.2379 20.1046C75.2379 19.6379 75.4179 19.2513 75.7779 18.9446C76.1512 18.6246 76.6112 18.4646 77.1579 18.4646C77.6512 18.4646 78.0512 18.5846 78.3579 18.8246C78.6646 19.0646 78.8179 19.4046 78.8179 19.8446C78.8179 20.3779 78.6446 20.8046 78.2979 21.1246C77.9512 21.4313 77.4912 21.5846 76.9179 21.5846ZM76.7579 32.3246C75.8912 32.3246 75.2579 32.0179 74.8579 31.4046C74.4712 30.7913 74.2779 29.9779 74.2779 28.9646C74.2779 28.3646 74.3512 27.5979 74.4979 26.6646C74.6579 25.7179 74.8579 24.8379 75.0979 24.0246C75.2179 23.5979 75.3779 23.3046 75.5779 23.1446C75.7779 22.9846 76.0979 22.9046 76.5379 22.9046C77.2179 22.9046 77.5579 23.1313 77.5579 23.5846C77.5579 23.9179 77.4312 24.6913 77.1779 25.9046C76.8579 27.3713 76.6979 28.3646 76.6979 28.8846C76.6979 29.2846 76.7512 29.5913 76.8579 29.8046C76.9646 30.0179 77.1446 30.1246 77.3979 30.1246C77.6379 30.1246 77.9379 29.9579 78.2979 29.6246C78.6579 29.2913 79.1379 28.7646 79.7379 28.0446C79.8979 27.8579 80.0779 27.7646 80.2779 27.7646C80.4512 27.7646 80.5846 27.8446 80.6779 28.0046C80.7846 28.1646 80.8379 28.3846 80.8379 28.6646C80.8379 29.1979 80.7112 29.6113 80.4579 29.9046C79.1379 31.5179 77.9046 32.3246 76.7579 32.3246ZM86.3798 28.3646C86.5531 28.3646 86.6864 28.4446 86.7798 28.6046C86.8864 28.7646 86.9398 28.9846 86.9398 29.2646C86.9398 29.7446 86.8264 30.1579 86.5998 30.5046C86.2264 31.0779 85.7331 31.5246 85.1198 31.8446C84.5198 32.1646 83.7998 32.3246 82.9598 32.3246C81.6798 32.3246 80.6864 31.9446 79.9798 31.1846C79.2731 30.4113 78.9198 29.3713 78.9198 28.0646C78.9198 27.1446 79.1131 26.2913 79.4998 25.5046C79.8864 24.7046 80.4198 24.0713 81.0998 23.6046C81.7931 23.1379 82.5731 22.9046 83.4398 22.9046C84.2131 22.9046 84.8331 23.1379 85.2998 23.6046C85.7664 24.0579 85.9998 24.6779 85.9998 25.4646C85.9998 26.3846 85.6664 27.1779 84.9998 27.8446C84.3464 28.4979 83.2264 29.0179 81.6398 29.4046C81.9598 30.0179 82.4998 30.3246 83.2598 30.3246C83.8064 30.3246 84.2531 30.1979 84.5998 29.9446C84.9598 29.6913 85.3731 29.2646 85.8398 28.6646C85.9998 28.4646 86.1798 28.3646 86.3798 28.3646ZM83.0998 24.8646C82.6064 24.8646 82.1864 25.1513 81.8398 25.7246C81.5064 26.2979 81.3398 26.9913 81.3398 27.8046V27.8446C82.1264 27.6579 82.7464 27.3779 83.1998 27.0046C83.6531 26.6313 83.8798 26.1979 83.8798 25.7046C83.8798 25.4513 83.8064 25.2513 83.6598 25.1046C83.5264 24.9446 83.3398 24.8646 83.0998 24.8646Z" fill="white"/>
</svg>
