<svg width="20" height="20" viewBox="0 0 20 20" fill="none" xmlns="http://www.w3.org/2000/svg">
<path fill-rule="evenodd" clip-rule="evenodd" d="M10.0446 1.04102H9.95797C9.2088 1.04102 8.58464 1.04102 8.08964 1.10768C7.5663 1.17768 7.0938 1.33268 6.71463 1.71185C6.33464 2.09185 6.17964 2.56435 6.10964 3.08685C6.06214 3.44268 6.04797 4.29185 6.04464 5.02018C4.35964 5.07602 3.34714 5.27268 2.64464 5.97602C1.66797 6.95185 1.66797 8.52352 1.66797 11.666C1.66797 14.8085 1.66797 16.3802 2.64464 17.356C3.6213 18.3318 5.19214 18.3327 8.33464 18.3327H11.668C14.8105 18.3327 16.3821 18.3327 17.358 17.356C18.3338 16.3793 18.3346 14.8085 18.3346 11.666C18.3346 8.52352 18.3346 6.95185 17.358 5.97602C16.6555 5.27268 15.643 5.07602 13.958 5.02102C13.9546 4.29185 13.9413 3.44268 13.893 3.08768C13.823 2.56435 13.668 2.09185 13.288 1.71268C12.9088 1.33268 12.4363 1.17768 11.913 1.10768C11.418 1.04102 10.793 1.04102 10.0446 1.04102ZM12.708 5.00102C12.7038 4.29518 12.6921 3.53602 12.6546 3.25352C12.6021 2.86935 12.513 2.70435 12.4046 2.59602C12.2963 2.48768 12.1313 2.39852 11.7463 2.34602C11.3446 2.29268 10.8046 2.29102 10.0013 2.29102C9.19797 2.29102 8.65797 2.29268 8.25547 2.34685C7.8713 2.39852 7.7063 2.48768 7.59797 2.59685C7.48964 2.70602 7.40047 2.86935 7.34797 3.25352C7.31047 3.53685 7.29797 4.29518 7.29464 5.00102C7.6213 4.99935 7.96797 4.99879 8.33464 4.99935H11.668C12.0357 4.99935 12.3824 4.9999 12.708 5.00102ZM10.0013 7.70768C10.1671 7.70768 10.326 7.77353 10.4432 7.89074C10.5605 8.00795 10.6263 8.16692 10.6263 8.33268V8.34102C11.5338 8.56935 12.293 9.28518 12.293 10.2768C12.293 10.4426 12.2271 10.6016 12.1099 10.7188C11.9927 10.836 11.8337 10.9018 11.668 10.9018C11.5022 10.9018 11.3432 10.836 11.226 10.7188C11.1088 10.6016 11.043 10.4426 11.043 10.2768C11.043 9.95685 10.688 9.51352 10.0013 9.51352C9.31464 9.51352 8.95964 9.95685 8.95964 10.2768C8.95964 10.5968 9.31464 11.041 10.0013 11.041C11.1555 11.041 12.293 11.841 12.293 13.0552C12.293 14.0468 11.5338 14.7618 10.6263 14.991V14.9993C10.6263 15.1651 10.5605 15.3241 10.4432 15.4413C10.326 15.5585 10.1671 15.6243 10.0013 15.6243C9.83554 15.6243 9.67657 15.5585 9.55936 15.4413C9.44215 15.3241 9.3763 15.1651 9.3763 14.9993V14.991C8.4688 14.7627 7.70964 14.0468 7.70964 13.0552C7.70964 12.8894 7.77548 12.7305 7.89269 12.6132C8.0099 12.496 8.16887 12.4302 8.33464 12.4302C8.5004 12.4302 8.65937 12.496 8.77658 12.6132C8.89379 12.7305 8.95964 12.8894 8.95964 13.0552C8.95964 13.3752 9.31464 13.8185 10.0013 13.8185C10.688 13.8185 11.043 13.3752 11.043 13.0552C11.043 12.7352 10.688 12.291 10.0013 12.291C8.84714 12.291 7.70964 11.491 7.70964 10.2768C7.70964 9.28518 8.4688 8.56935 9.3763 8.34102V8.33268C9.3763 8.16692 9.44215 8.00795 9.55936 7.89074C9.67657 7.77353 9.83554 7.70768 10.0013 7.70768Z" fill="white"/>
</svg>
