<svg width="24" height="24" viewBox="0 0 24 24" fill="none" xmlns="http://www.w3.org/2000/svg">
<path d="M12.0586 20C9.83659 20 7.94759 19.222 6.39159 17.666C4.83559 16.11 4.05793 14.2214 4.05859 12C4.05859 10.3534 4.52959 8.84168 5.47159 7.46502C6.41426 6.08702 7.75093 5.09602 9.48159 4.49202C9.68559 4.42068 9.86426 4.40202 10.0176 4.43602C10.1709 4.47002 10.2979 4.53635 10.3986 4.63502C10.4993 4.73368 10.5633 4.86035 10.5906 5.01502C10.6173 5.17035 10.5963 5.33335 10.5276 5.50402C10.3983 5.82202 10.3043 6.14402 10.2456 6.47002C10.1869 6.79602 10.1579 7.13935 10.1586 7.50002C10.1586 9.27802 10.7806 10.789 12.0246 12.033C13.2686 13.277 14.7799 13.8994 16.5586 13.9C17.0239 13.9 17.4496 13.8507 17.8356 13.752C18.2223 13.6534 18.5516 13.5734 18.8236 13.512C18.9689 13.4854 19.1019 13.4887 19.2226 13.522C19.3433 13.5554 19.4396 13.614 19.5116 13.698C19.5903 13.7814 19.6436 13.884 19.6716 14.006C19.6983 14.128 19.6823 14.267 19.6236 14.423C19.1469 16.0564 18.2126 17.394 16.8206 18.436C15.4286 19.478 13.8413 19.9994 12.0586 20ZM12.0586 19C13.5253 19 14.8419 18.5957 16.0086 17.787C17.1753 16.9784 18.0253 15.9244 18.5586 14.625C18.2253 14.7084 17.8919 14.775 17.5586 14.825C17.2253 14.875 16.8919 14.9 16.5586 14.9C14.5086 14.9 12.7626 14.1794 11.3206 12.738C9.87859 11.2967 9.15793 9.55068 9.15859 7.50002C9.15859 7.16668 9.18359 6.83335 9.23359 6.50002C9.28359 6.16668 9.35026 5.83335 9.43359 5.50002C8.13359 6.03335 7.07926 6.88335 6.27059 8.05002C5.46193 9.21668 5.05793 10.5334 5.05859 12C5.05859 13.9334 5.74193 15.5834 7.10859 16.95C8.47526 18.3167 10.1253 19 12.0586 19Z" fill="white"/>
</svg>
