<svg width="20" height="20" viewBox="0 0 20 20" fill="none" xmlns="http://www.w3.org/2000/svg">
<path fill-rule="evenodd" clip-rule="evenodd" d="M10.7077 4.98405C10.3303 4.60725 10.0834 4.11966 10.0029 3.59252C9.92236 3.06538 10.0125 2.52631 10.2602 2.05405L8.78516 1.27905C8.3721 2.0659 8.22144 2.96419 8.35517 3.84275C8.4889 4.7213 8.90002 5.53408 9.52849 6.16239L10.7077 4.98405ZM6.76682 1.83822C6.44723 3.34585 6.73723 4.9187 7.57349 6.21322L6.17432 7.12072C5.09872 5.45651 4.72543 3.43426 5.13599 1.49572L6.76682 1.83822ZM3.33266 4.99989H1.66599V3.33322H3.33266V4.99989ZM4.95766 10.4466C4.58337 10.072 4.0998 9.8259 3.57666 9.74383C3.05353 9.66176 2.51784 9.74792 2.04682 9.98989L1.28516 8.50655C2.0701 8.10337 2.96277 7.95979 3.83455 8.09653C4.70633 8.23326 5.51218 8.64324 6.13599 9.26739L4.95766 10.4466ZM11.4577 6.39572L13.0602 4.79322L14.791 8.06239V18.3541L11.4577 16.5899V6.39572ZM16.041 18.9007V10.4241L18.9752 15.9657L16.041 18.9007ZM10.2077 7.64572L4.79182 13.0607L10.2077 15.9274V7.64572Z" fill="white"/>
</svg>
