<svg width="20" height="20" viewBox="0 0 20 20" fill="none" xmlns="http://www.w3.org/2000/svg">
<path d="M18.4054 2.799C18.2934 2.359 17.7494 2 17.1954 2H2.80543C2.25043 2 1.70643 2.359 1.59543 2.799L1.39443 4H18.6054L18.4054 2.799ZM19.4124 5H0.587426C0.506655 5.00005 0.426785 5.01698 0.352932 5.04969C0.27908 5.0824 0.212874 5.13017 0.158556 5.18995C0.104237 5.24973 0.0630026 5.32019 0.0374945 5.39683C0.0119864 5.47347 0.00276681 5.55459 0.0104262 5.635L0.933426 17.304C0.951814 17.4944 1.04045 17.6712 1.18205 17.7999C1.32366 17.9286 1.5081 17.9999 1.69943 18H18.3004C18.4918 17.9999 18.6762 17.9286 18.8178 17.7999C18.9594 17.6712 19.048 17.4944 19.0664 17.304L19.9894 5.635C19.9971 5.55459 19.9879 5.47347 19.9624 5.39683C19.9368 5.32019 19.8956 5.24973 19.8413 5.18995C19.787 5.13017 19.7208 5.0824 19.6469 5.04969C19.5731 5.01698 19.4932 5.00005 19.4124 5ZM12.4384 8.375C12.6872 8.375 12.9258 8.47382 13.1017 8.64973C13.2776 8.82564 13.3764 9.06423 13.3764 9.313C13.3764 9.56177 13.2776 9.80036 13.1017 9.97627C12.9258 10.1522 12.6872 10.251 12.4384 10.251C12.1897 10.251 11.9511 10.1522 11.7752 9.97627C11.5992 9.80036 11.5004 9.56177 11.5004 9.313C11.5004 9.06423 11.5992 8.82564 11.7752 8.64973C11.9511 8.47382 12.1897 8.375 12.4384 8.375ZM5.50043 14L7.98643 8.286L10.8134 12.862L13.2374 11.658L14.5004 14H5.50043Z" fill="white"/>
</svg>
