<svg width="20" height="20" viewBox="0 0 20 20" fill="none" xmlns="http://www.w3.org/2000/svg">
<path d="M13.0133 16.6667C12.79 16.6667 12.5953 16.5837 12.4292 16.4175C12.2631 16.2514 12.1797 16.0567 12.1792 15.8334V12.18C12.1792 11.9567 12.2625 11.762 12.4292 11.5959C12.5958 11.4298 12.7903 11.3464 13.0125 11.3459H16.6667C16.89 11.3459 17.0847 11.4292 17.2508 11.5959C17.4169 11.7625 17.5 11.957 17.5 12.1792V15.8334C17.5 16.0567 17.4169 16.2514 17.2508 16.4175C17.0847 16.5837 16.89 16.6667 16.6667 16.6667H13.0133ZM2.5 14.4234V13.59H9.35833V14.4234H2.5ZM13.0133 8.65337C12.79 8.65337 12.5953 8.57032 12.4292 8.40421C12.2631 8.2381 12.1797 8.04365 12.1792 7.82087V4.16671C12.1792 3.94337 12.2625 3.74865 12.4292 3.58254C12.5958 3.41643 12.7903 3.33337 13.0125 3.33337H16.6667C16.89 3.33337 17.0847 3.41643 17.2508 3.58254C17.4169 3.74865 17.5 3.94337 17.5 4.16671V7.82087C17.5 8.04365 17.4169 8.2381 17.2508 8.40421C17.0847 8.57032 16.89 8.65365 16.6667 8.65421L13.0133 8.65337ZM2.5 6.41004V5.57671H9.35833V6.41004H2.5Z" fill="white"/>
</svg>
