<svg width="20" height="20" viewBox="0 0 20 20" fill="none" xmlns="http://www.w3.org/2000/svg">
<path d="M10.0013 10.8327C11.8423 10.8327 13.3346 9.3403 13.3346 7.49935C13.3346 5.6584 11.8423 4.16602 10.0013 4.16602C8.16035 4.16602 6.66797 5.6584 6.66797 7.49935C6.66797 9.3403 8.16035 10.8327 10.0013 10.8327Z" fill="white"/>
<path d="M14.168 10C15.5487 10 16.668 8.88071 16.668 7.5C16.668 6.11929 15.5487 5 14.168 5C12.7873 5 11.668 6.11929 11.668 7.5C11.668 8.88071 12.7873 10 14.168 10Z" fill="white"/>
<path d="M5.83203 10C7.21274 10 8.33203 8.88071 8.33203 7.5C8.33203 6.11929 7.21274 5 5.83203 5C4.45132 5 3.33203 6.11929 3.33203 7.5C3.33203 8.88071 4.45132 10 5.83203 10Z" fill="white"/>
<path fill-rule="evenodd" clip-rule="evenodd" d="M14.6423 15.0009H16.5806C17.0739 15.0009 17.4514 14.5759 17.3323 14.0976C17.0248 12.8726 16.2081 10.8342 14.1681 10.8342C13.4298 10.8342 12.8514 11.1009 12.3998 11.5009C13.6564 12.3151 14.3064 13.7426 14.6423 15.0009ZM7.60309 11.5009C7.119 11.0633 6.48724 10.8251 5.83476 10.8342C3.79476 10.8342 2.97809 12.8726 2.67059 14.0976C2.55142 14.5759 2.92892 15.0009 3.42226 15.0009H5.36142C5.69726 13.7426 6.34642 12.3151 7.60309 11.5009Z" fill="white"/>
<path d="M10.0011 11.666C13.0919 11.666 13.8894 14.4168 14.0961 15.8377C14.1628 16.2935 13.7944 16.666 13.3344 16.666H6.66776C6.20776 16.666 5.84026 16.2935 5.9061 15.8377C6.11276 14.4168 6.91026 11.666 10.0011 11.666Z" fill="white"/>
</svg>
