<svg width="20" height="20" viewBox="0 0 20 20" fill="none" xmlns="http://www.w3.org/2000/svg">
<path d="M8.33268 18.3334H7.29102C5.79985 18.3312 4.37039 17.7379 3.31597 16.6835C2.26156 15.629 1.66822 14.1996 1.66602 12.7084V7.29175C1.66822 5.80058 2.26156 4.37112 3.31597 3.31671C4.37039 2.26229 5.79985 1.66895 7.29102 1.66675H12.7077C14.1988 1.66895 15.6283 2.26229 16.6827 3.31671C17.7371 4.37112 18.3305 5.80058 18.3327 7.29175V8.33342C18.3327 8.49918 18.2668 8.65815 18.1496 8.77536C18.0324 8.89257 17.8734 8.95842 17.7077 8.95842C17.5419 8.95842 17.383 8.89257 17.2657 8.77536C17.1485 8.65815 17.0827 8.49918 17.0827 8.33342V7.29175C17.0805 6.1321 16.6188 5.02058 15.7988 4.20059C14.9788 3.38059 13.8673 2.91895 12.7077 2.91675H7.29102C6.13137 2.91895 5.01985 3.38059 4.19986 4.20059C3.37986 5.02058 2.91822 6.1321 2.91602 7.29175V12.7084C2.91822 13.8681 3.37986 14.9796 4.19986 15.7996C5.01985 16.6196 6.13137 17.0812 7.29102 17.0834H8.33268C8.49844 17.0834 8.65741 17.1493 8.77462 17.2665C8.89183 17.3837 8.95768 17.5427 8.95768 17.7084C8.95768 17.8742 8.89183 18.0331 8.77462 18.1504C8.65741 18.2676 8.49844 18.3334 8.33268 18.3334Z" fill="white"/>
<path d="M17.9328 12.1084C17.9172 12.4545 17.7878 12.7857 17.5649 13.0509C17.3419 13.316 17.0377 13.5003 16.6995 13.5751L14.0661 14.0084L13.9911 14.0834C13.9582 14.1166 13.9327 14.1564 13.9161 14.2001L13.4995 16.6251C13.4141 16.9743 13.2147 17.2852 12.9328 17.5084C12.671 17.7162 12.3501 17.8358 12.0161 17.8501H11.9411C11.6177 17.8468 11.3026 17.7466 11.0367 17.5624C10.7707 17.3782 10.5662 17.1184 10.4495 16.8167L8.12448 10.2334C8.02108 9.94882 8.00145 9.64055 8.06791 9.34515C8.13438 9.04975 8.28415 8.77961 8.49948 8.56673C8.7115 8.34898 8.98467 8.20077 9.28281 8.14174C9.57935 8.07372 9.88932 8.094 10.1745 8.20007L16.8411 10.5167C17.1677 10.6311 17.4487 10.8477 17.6423 11.1345C17.836 11.4212 17.932 11.7628 17.9161 12.1084H17.9328Z" fill="white"/>
</svg>
