<svg width="20" height="20" viewBox="0 0 20 20" fill="none" xmlns="http://www.w3.org/2000/svg">
<path d="M7.5 18.3333C7.8 18.3333 8.90833 17.8275 10.0417 16.815M10.0417 16.815C11.0067 15.9517 11.9883 14.72 12.5 13.1208C13.6108 9.64584 6.94417 13.1208 9.16667 16.0167C9.44 16.3733 9.73417 16.6333 10.0417 16.815ZM10.0417 16.815C11.3767 17.605 12.9425 16.895 14.0033 16.0783C14.3283 15.8292 14.49 15.7042 14.5867 15.7433C14.6833 15.7825 14.74 16.005 14.8533 16.4517C15.215 17.8808 16.2842 19.0342 17.5 17.175" stroke="white" stroke-width="1.5" stroke-linecap="round" stroke-linejoin="round"/>
<path d="M16.6667 10.8334V6.57508C16.6667 5.14675 16.6667 4.43342 16.4433 3.86258C16.085 2.94508 15.325 2.22091 14.3625 1.87925C13.7642 1.66675 13.0142 1.66675 11.515 1.66675C8.89167 1.66675 7.58 1.66675 6.53167 2.03925C4.84833 2.63758 3.51917 3.90341 2.89 5.50925C2.5 6.50758 2.5 7.75758 2.5 10.2576V12.4051C2.5 14.9951 2.5 16.2892 3.20667 17.1884C3.41 17.4479 3.6475 17.6745 3.91917 17.8684C4.225 18.0859 4.575 18.2334 5 18.3334" stroke="white" stroke-width="1.5" stroke-linecap="round" stroke-linejoin="round"/>
<path d="M2.5 10.0001C2.5 9.26344 2.79263 8.55697 3.31351 8.03609C3.83439 7.51521 4.54086 7.22258 5.2775 7.22258C5.8325 7.22258 6.48667 7.31925 7.02583 7.17508C7.26142 7.11168 7.47621 6.98746 7.64865 6.81487C7.82109 6.64228 7.94513 6.42739 8.00833 6.19175C8.1525 5.65258 8.05583 4.99841 8.05583 4.44341C8.05605 3.70692 8.34878 3.00067 8.86964 2.47996C9.3905 1.95926 10.0968 1.66675 10.8333 1.66675" stroke="white" stroke-width="1.5" stroke-linecap="round" stroke-linejoin="round"/>
</svg>
