<svg width="145" height="148" viewBox="0 0 145 148" fill="none" xmlns="http://www.w3.org/2000/svg">
<path d="M42.2195 12.3373L41.3831 14.2643C41.3156 14.4174 41.326 14.5916 41.4039 14.7394L42.3909 16.5925C42.6299 17.0465 42.1727 17.548 41.7104 17.3421L39.8143 16.4922C39.6637 16.4235 39.4923 16.4341 39.3468 16.5133L37.5235 17.5163C37.0767 17.7592 36.5832 17.2946 36.7858 16.8247L37.6222 14.8978C37.6897 14.7447 37.6793 14.5705 37.6014 14.4227L36.6144 12.5696C36.3754 12.1156 36.8326 11.6141 37.2949 11.8199L39.191 12.6699C39.3416 12.7385 39.513 12.728 39.6585 12.6488L41.4818 11.6457C41.9286 11.4029 42.4221 11.8675 42.2195 12.3373Z" fill="#F8931F"/>
<path d="M118.354 12.8372L118.291 14.5688C118.291 14.7061 118.343 14.838 118.447 14.9278L119.756 16.0364C120.073 16.3057 119.876 16.8336 119.46 16.8178L117.756 16.7544C117.621 16.7544 117.491 16.8072 117.403 16.9128L116.312 18.2432C116.047 18.5652 115.528 18.3646 115.543 17.9423L115.606 16.2107C115.606 16.0734 115.554 15.9414 115.45 15.8517L114.141 14.743C113.824 14.4738 114.021 13.9458 114.437 13.9617L116.141 14.025C116.276 14.025 116.406 13.9722 116.494 13.8666L117.585 12.5363C117.85 12.2142 118.369 12.4148 118.354 12.8372Z" fill="#F8931F"/>
<path d="M99.0034 131.365L100.058 132.727C100.141 132.833 100.271 132.896 100.406 132.896L102.11 132.881C102.525 132.881 102.712 133.409 102.385 133.672L101.045 134.744C100.941 134.829 100.879 134.961 100.879 135.098L100.894 136.83C100.894 137.252 100.375 137.442 100.115 137.109L99.0605 135.747C98.9774 135.642 98.8475 135.578 98.7125 135.578L97.0086 135.594C96.593 135.594 96.406 135.066 96.7333 134.802L98.0735 133.731C98.1774 133.646 98.2398 133.514 98.2398 133.377L98.2242 131.645C98.2242 131.223 98.7437 131.033 99.0034 131.365Z" fill="#F8931F"/>
<path d="M138.995 64.2927L139.764 65.8395C139.826 65.961 139.936 66.0507 140.071 66.0771L141.743 66.4097C142.154 66.4889 142.226 67.0538 141.858 67.2438L140.336 68.0252C140.216 68.0885 140.128 68.1994 140.102 68.3367L139.775 70.0366C139.697 70.4537 139.146 70.5276 138.959 70.1528L138.19 68.6059C138.128 68.4845 138.019 68.3947 137.884 68.3683L136.211 68.0357C135.801 67.9566 135.728 67.3917 136.097 67.2016L137.619 66.4203C137.738 66.3569 137.827 66.2461 137.852 66.1088L138.18 64.4088C138.258 63.9918 138.808 63.9179 139.001 64.2927H138.995Z" fill="#F8931F"/>
<path d="M9.44349 81.4875L8.30585 82.7757C8.21754 82.876 8.17598 83.0185 8.20195 83.1505L8.50844 84.8557C8.58117 85.2728 8.09806 85.5473 7.78637 85.2675L6.51886 84.1113C6.42016 84.0216 6.27991 83.9794 6.15004 84.0057L4.47215 84.3172C4.06176 84.3911 3.79164 83.9002 4.06696 83.5834L5.2046 82.2952C5.29291 82.1949 5.33447 82.0524 5.30849 81.9204L5.00201 80.2152C4.92928 79.7981 5.41239 79.5236 5.72407 79.8034L6.99158 80.9596C7.09028 81.0493 7.23054 81.0916 7.36041 81.0652L9.0383 80.7537C9.44868 80.6798 9.71881 81.1707 9.44349 81.4875Z" fill="#F8931F"/>
<path d="M122.965 20.5365L122.876 23.0072C122.871 23.2026 122.954 23.3926 123.1 23.5141L124.965 25.0979C125.422 25.4832 125.136 26.2382 124.544 26.2171L122.113 26.1273C121.92 26.122 121.733 26.2065 121.614 26.3543L120.056 28.2496C119.676 28.7142 118.934 28.4238 118.954 27.822L119.043 25.3513C119.048 25.1559 118.965 24.9659 118.819 24.8444L116.954 23.2606C116.497 22.8753 116.783 22.1203 117.375 22.1414L119.806 22.2312C119.998 22.2365 120.185 22.152 120.305 22.0042L121.863 20.1089C122.243 19.6443 122.985 19.9347 122.965 20.5365Z" fill="#F8931F"/>
<path d="M94.2723 136.889L95.7788 138.826C95.8983 138.979 96.0801 139.069 96.2723 139.069L98.7034 139.048C99.2956 139.043 99.5605 139.803 99.093 140.178L97.1865 141.709C97.0359 141.83 96.9476 142.015 96.9476 142.21L96.9684 144.681C96.9736 145.283 96.2255 145.552 95.8567 145.077L94.3502 143.14C94.2307 142.986 94.0489 142.897 93.8567 142.897L91.4256 142.918C90.8334 142.923 90.5685 142.163 91.036 141.788L92.9425 140.257C93.0931 140.136 93.1814 139.951 93.1814 139.755L93.1606 137.285C93.1554 136.683 93.9035 136.414 94.2723 136.889Z" fill="#F8931F"/>
<path d="M7.82754 89.0718L6.20159 90.909C6.07173 91.0569 6.01978 91.2522 6.05095 91.4423L6.4873 93.8707C6.5912 94.462 5.9003 94.858 5.45875 94.4567L3.65099 92.8043C3.50554 92.6723 3.31333 92.6195 3.12632 92.6512L0.736757 93.0947C0.154949 93.2003 -0.234654 92.4981 0.160144 92.0494L1.78609 90.2122C1.91596 90.0643 1.9679 89.869 1.93674 89.679L1.50038 87.2505C1.39649 86.6592 2.08738 86.2632 2.52893 86.6645L4.33669 88.3169C4.48215 88.4489 4.67435 88.5017 4.86136 88.47L7.25093 88.0265C7.83273 87.9209 8.22234 88.6231 7.82754 89.0718Z" fill="#F8931F"/>
<path d="M66.132 74.3079C65.8566 71.4254 67.9293 68.8597 70.7657 68.5799C73.602 68.3001 76.1266 70.4065 76.4019 73.289C76.6772 76.1715 74.6045 78.7373 71.7682 79.0171C68.9319 79.2969 66.4073 77.1905 66.132 74.3079Z" fill="#4A2559"/>
<path d="M100.592 37.4101C108.001 35.2541 112.287 27.4028 110.165 19.8739C108.044 12.345 100.318 7.98942 92.9099 10.1455C85.5017 12.3015 81.2159 20.1527 83.3374 27.6816C85.4589 35.2106 93.1842 39.5661 100.592 37.4101Z" fill="#249EFF"/>
<path d="M130.911 39.9408C129.94 39.8616 128.584 39.8932 128.584 39.8932C128.584 39.8932 131.187 38.9641 132.262 38.3622C133.332 37.7604 132.641 36.8154 131.691 36.9791C130.75 37.1374 128.195 37.7974 128.195 37.7974C128.195 37.7974 131.405 35.7543 132.246 34.9729C133.088 34.1916 132.428 32.8453 131.078 33.5422C129.748 34.2285 126.667 35.8123 126.667 35.8123C126.667 35.8123 128.995 33.9857 130.101 32.7503C131.208 31.515 129.914 30.5911 128.943 31.2352C127.971 31.874 124.647 34.6562 124.647 34.6562C125.997 32.7714 125.187 31.5308 124.449 31.8C123.712 32.0693 122.564 35.4428 120.86 36.24C115.899 37.2219 110.938 38.2039 105.977 39.1858C103.182 39.7401 100.465 40.8066 97.6185 41.0441C93.5199 41.382 89.1355 40.4212 86.0395 37.5439C83.2967 34.994 81.8422 31.4146 80.6734 27.9092C79.3435 23.918 77.8526 19.9743 76.4241 16.0096C75.8527 14.4311 75.2864 12.8578 74.715 11.2793C74.4449 9.38929 76.5955 6.57541 76.4137 5.79935C76.2319 5.02329 74.767 5.01273 73.9514 7.19309C73.9514 7.19309 74.4241 2.84292 74.4241 1.66563C74.4241 0.488345 72.954 -0.10822 72.5384 1.50725C72.1229 3.12273 71.8891 6.10555 71.8891 6.10555C71.8891 6.10555 71.5099 2.62119 71.3488 1.11131C71.1878 -0.4197 69.7177 -0.250761 69.5307 0.894853C69.3437 2.04047 69.4164 5.88382 69.4164 5.88382C69.4164 5.88382 68.5593 3.34974 68.1749 2.46281C67.7905 1.56533 66.6372 1.49142 66.7255 2.72678C66.8139 3.9727 67.4684 6.69683 67.4684 6.69683C67.4684 6.69683 66.7515 5.5301 66.1541 4.74348C65.5204 3.90407 64.8295 4.2789 65.0321 5.17111C65.2347 6.06859 66.3463 10.0386 66.8606 13.3013L70.7255 55.8421C71.6449 63.8033 80.211 68.2802 87.1148 64.3999L123.254 44.1062C123.327 44.085 123.4 44.0586 123.478 44.027C126.444 42.6807 130.324 41.4559 131.176 41.1392C132.023 40.8224 131.956 40.0305 130.917 39.9513L130.911 39.9408Z" fill="#249EFF"/>
<path d="M133.927 95.4263C140.042 91.1212 141.566 82.593 137.329 76.3781C133.093 70.1631 124.702 68.6148 118.587 72.9198C112.471 77.2249 110.948 85.7531 115.184 91.9681C119.42 98.183 127.811 99.7313 133.927 95.4263Z" fill="#F8C91F"/>
<path d="M120.993 120.771C120.795 119.837 120.395 118.57 120.395 118.57C120.395 118.57 121.959 120.76 122.811 121.6C123.658 122.439 124.323 121.526 123.907 120.676C123.502 119.837 122.198 117.614 122.198 117.614C122.198 117.614 124.941 120.064 125.891 120.639C126.842 121.214 127.876 120.222 126.868 119.145C125.876 118.084 123.585 115.629 123.585 115.629C123.585 115.629 125.891 117.313 127.325 118.01C128.759 118.707 129.237 117.234 128.385 116.5C127.533 115.766 124.078 113.406 124.078 113.406C126.167 114.151 127.071 113.047 126.624 112.43C126.177 111.807 122.79 111.669 121.59 110.286C119.325 105.894 117.055 101.501 114.79 97.1143C113.512 94.6383 111.788 92.384 110.785 89.7708C109.341 86.0119 109.003 81.6248 110.764 77.9134C112.323 74.6297 115.185 72.2698 118.047 70.2056C121.315 67.851 124.494 65.3592 127.699 62.9201C128.977 61.9487 130.255 60.9773 131.533 60.0059C133.174 59.2246 136.338 60.4758 136.993 60.0851C137.647 59.6997 137.252 58.3165 135.045 58.1529C135.045 58.1529 139.138 57.3926 140.208 57.0653C141.278 56.738 141.418 55.1964 139.829 55.2492C138.244 55.3073 135.465 55.9092 135.465 55.9092C135.465 55.9092 138.53 54.5893 139.86 54.0192C141.211 53.4437 140.65 52.108 139.554 52.2506C138.457 52.3931 134.977 53.5229 134.977 53.5229C134.977 53.5229 137.05 52.013 137.751 51.4112C138.463 50.7988 138.213 49.6954 137.107 50.1177C136 50.5454 133.699 51.918 133.699 51.918C133.699 51.918 134.567 50.9202 135.117 50.1441C135.704 49.3153 135.174 48.7715 134.416 49.2097C133.658 49.6479 130.348 51.7913 127.523 53.1745L89.8713 68.5848C82.8792 71.6521 81.1753 80.9437 86.6194 86.3603L115.097 114.716C115.138 114.779 115.18 114.842 115.232 114.906C117.279 117.324 119.466 120.634 119.99 121.341C120.515 122.054 121.211 121.769 121.003 120.771H120.993Z" fill="#F8C91F"/>
<path d="M89.0426 136.81C93.5308 130.861 92.4241 122.341 86.5707 117.78C80.7173 113.218 72.3337 114.343 67.8454 120.292C63.3572 126.241 64.4639 134.761 70.3173 139.322C76.1707 143.883 84.5543 142.759 89.0426 136.81Z" fill="#F8931F"/>
<path d="M42.8126 134.314C43.6281 133.844 44.6879 133.084 44.6879 133.084C44.6879 133.084 43.1139 135.238 42.5788 136.304C42.0489 137.366 43.0931 137.735 43.7632 137.086C44.4229 136.447 46.106 134.536 46.106 134.536C46.106 134.536 44.6359 137.899 44.3814 138.981C44.1268 140.063 45.358 140.765 46.0645 139.477C46.7554 138.21 48.3657 135.28 48.3657 135.28C48.3657 135.28 47.4826 137.999 47.254 139.583C47.0307 141.167 48.5423 141.193 48.9735 140.153C49.4047 139.118 50.5787 135.101 50.5787 135.101C50.5007 137.329 51.7994 137.872 52.241 137.26C52.6877 136.642 51.815 133.348 52.7449 131.785C56.163 128.306 59.5811 124.827 62.9992 121.348C64.9265 119.384 66.5161 117.061 68.6511 115.324C71.7263 112.822 75.7107 111.201 79.6846 111.798C83.2015 112.326 86.2456 114.374 89.0144 116.518C92.1727 118.962 95.435 121.279 98.6557 123.645C99.9388 124.584 101.222 125.524 102.5 126.469C103.71 127.821 103.487 131.226 104.037 131.743C104.593 132.26 105.757 131.469 105.258 129.299C105.258 129.299 107.175 133.01 107.798 133.945C108.422 134.879 109.897 134.552 109.378 133.047C108.858 131.537 107.471 129.045 107.471 129.045C107.471 129.045 109.611 131.606 110.531 132.715C111.466 133.839 112.541 132.905 112.084 131.896C111.627 130.888 109.544 127.873 109.544 127.873C109.544 127.873 111.559 129.42 112.328 129.916C113.107 130.418 114.063 129.853 113.341 128.913C112.614 127.974 110.661 126.173 110.661 126.173C110.661 126.173 111.845 126.712 112.733 127.008C113.679 127.324 114.027 126.659 113.398 126.057C112.765 125.455 109.793 122.911 107.663 120.604L82.1781 88.9594C77.2535 83.1416 68.1004 84.2556 64.6667 91.0923L46.693 126.865C46.6463 126.923 46.5995 126.981 46.558 127.05C44.9112 129.732 42.4801 132.815 41.971 133.528C41.4671 134.24 41.9347 134.826 42.8022 134.33L42.8126 134.314Z" fill="#F8931F"/>
<path d="M35.3329 91.498C31.6655 84.9939 23.5046 82.7449 17.1047 86.4721C10.7048 90.1993 8.49184 98.4931 12.1593 104.997C15.8268 111.501 23.9877 113.75 30.3876 110.023C36.7874 106.296 39.0004 98.0021 35.3329 91.498Z" fill="#F94E54"/>
<path d="M5.29799 66.7393C6.02525 67.3358 7.11614 68.0538 7.11614 68.0538C7.11614 68.0538 4.56554 67.3622 3.39153 67.2514C2.22792 67.1405 2.27467 68.265 3.11102 68.6557C3.93698 69.0411 6.31096 69.928 6.31096 69.928C6.31096 69.928 2.69025 69.7855 1.60975 69.9438C0.529245 70.1022 0.33704 71.5276 1.77598 71.7177C3.19413 71.9025 6.4668 72.3406 6.4668 72.3406C6.4668 72.3406 3.65646 72.5096 2.12402 72.8844C0.591581 73.2592 1.13183 74.6952 2.23831 74.7216C3.34478 74.748 7.4538 74.3679 7.4538 74.3679C5.3863 75.1176 5.37072 76.543 6.09798 76.7383C6.82524 76.9337 9.5161 74.8906 11.2927 75.1915C15.7394 77.129 20.1808 79.0718 24.6275 81.0093C27.1314 82.1021 29.8482 82.7409 32.2274 84.1188C35.6507 86.0986 38.6117 89.2556 39.5312 93.231C40.3467 96.747 39.5987 100.379 38.6688 103.79C37.6039 107.675 36.6897 111.614 35.7182 115.526C35.3338 117.083 34.9442 118.64 34.5598 120.203C33.7754 121.845 30.5755 122.895 30.3105 123.608C30.0456 124.321 31.1988 125.134 32.9962 123.856C32.9962 123.856 30.3157 127.04 29.6924 127.969C29.069 128.898 29.9105 130.176 31.1001 129.125C32.2845 128.075 34.0507 125.841 34.0507 125.841C34.0507 125.841 32.5027 128.808 31.8326 130.086C31.1521 131.385 32.3988 132.055 33.1572 131.253C33.9157 130.45 35.8949 127.367 35.8949 127.367C35.8949 127.367 35.2299 129.843 35.0585 130.751C34.8871 131.67 35.7598 132.367 36.3468 131.337C36.939 130.302 37.8637 127.789 37.8637 127.789C37.8637 127.789 37.8117 129.109 37.8637 130.054C37.9208 131.063 38.6636 131.147 38.9805 130.329C39.2974 129.51 40.5234 125.757 41.848 122.895L61.349 87.128C64.845 80.3283 60.4399 72.0925 52.9231 71.3798L13.5732 67.642C13.5056 67.6209 13.4329 67.5945 13.355 67.584C10.2953 67.0244 6.57589 65.8682 5.73435 65.6517C4.89281 65.4406 4.53437 66.1005 5.30838 66.734L5.29799 66.7393Z" fill="#F94E54"/>
<path d="M36.6212 49.3175C43.4823 47.0667 47.2489 39.5894 45.0341 32.6166C42.8194 25.6437 35.462 21.8158 28.6009 24.0666C21.7398 26.3174 17.9731 33.7947 20.1879 40.7676C22.4026 47.7404 29.7601 51.5684 36.6212 49.3175Z" fill="#3EB489"/>
<path d="M55.799 9.68512C55.4769 10.5562 55.1496 11.7968 55.1496 11.7968C55.1496 11.7968 55.0042 9.1783 54.7496 8.03797C54.4951 6.90291 53.4821 7.29358 53.3782 8.20163C53.2743 9.09911 53.1912 11.6068 53.1912 11.6068C53.1912 11.6068 52.2198 8.14883 51.7471 7.17216C51.2744 6.20076 49.9133 6.45417 50.1783 7.86903C50.438 9.26277 51.0354 12.4884 51.0354 12.4884C51.0354 12.4884 50.0276 9.88573 49.2172 8.55534C48.4121 7.22495 47.2588 8.16467 47.5757 9.22054C47.8926 10.2764 49.4874 14.0353 49.4874 14.0353C48.1731 12.3142 46.864 12.7313 46.9108 13.4757C46.9575 14.2201 49.6432 16.1417 49.9029 17.905C49.4822 22.6934 49.0614 27.4765 48.6406 32.2648C48.4017 34.9625 48.6406 37.7184 48.1108 40.3844C47.3471 44.2172 45.3576 47.9708 42.007 50.0509C39.0408 51.8933 35.4928 52.2893 32.0955 52.4477C28.2202 52.6272 24.3449 52.9598 20.4697 53.2343C18.9269 53.3452 17.384 53.456 15.8412 53.5616C14.101 53.3188 12.1685 50.621 11.4361 50.5841C10.7036 50.5471 10.314 51.8828 12.0283 53.1973C12.0283 53.1973 8.30366 51.6347 7.25953 51.3285C6.22058 51.0223 5.30631 52.2101 6.63096 53.0073C7.95042 53.8097 10.527 54.797 10.527 54.797C10.527 54.797 7.34784 54.2374 5.97124 53.9945C4.57386 53.7464 4.34529 55.1296 5.30631 55.5994C6.27253 56.0693 9.69065 57.0037 9.69065 57.0037C9.69065 57.0037 7.22316 57.1304 6.34006 57.2466C5.44657 57.3627 5.07774 58.3975 6.1998 58.6403C7.32186 58.8832 9.90364 58.9888 9.90364 58.9888C9.90364 58.9888 8.68288 59.3425 7.83094 59.6804C6.92706 60.0446 7.07252 60.7679 7.91925 60.8154C8.76599 60.8629 12.5633 60.8788 15.5815 61.2589L54.2094 68.7819C61.4872 70.012 67.6741 63.3495 66.0377 56.0376L57.482 17.7519C57.482 17.678 57.482 17.6041 57.4716 17.5249C57.0509 14.4629 56.9782 10.6037 56.921 9.74319C56.8587 8.88266 56.147 8.7454 55.8041 9.66928L55.799 9.68512Z" fill="#3EB489"/>
</svg>
